<svg width="447" height="282" viewBox="0 0 447 282" fill="none" xmlns="http://www.w3.org/2000/svg">
<g filter="url(#filter0_d_183_94)">
<rect x="59.646" y="5" width="191" height="215" rx="20" transform="rotate(15 59.646 5)" fill="#E9F9FC"/>
</g>
<g filter="url(#filter1_d_183_94)">
<path d="M124.336 53.014C130.317 51.8824 136.487 53.5357 141.1 57.5059L152.481 67.2992C157.094 71.2693 159.648 77.1242 159.421 83.2064L158.859 98.2098C158.632 104.292 155.647 109.94 150.75 113.554L138.67 122.469C133.773 126.084 127.496 127.271 121.617 125.696L107.115 121.81C101.236 120.235 96.3937 116.068 93.9598 110.489L87.9559 96.7283C85.522 91.1497 85.7608 84.7663 88.6048 79.3851L95.6203 66.1112C98.4643 60.73 103.604 56.9368 109.584 55.8052L124.336 53.014Z" fill="#1A9BB2"/>
</g>
<g clip-path="url(#clip0_183_94)">
<path d="M104.75 98.6171C103.066 95.181 102.355 91.3489 102.695 87.5373L101.201 87.4028C100.843 91.4702 101.596 95.5586 103.381 99.231C105.166 102.903 107.915 106.022 111.335 108.253L112.153 106.996C108.974 104.922 106.416 102.027 104.75 98.6171Z" fill="#D3F3F8"/>
<path d="M116.96 69.4744L116.483 68.0522C112.474 69.3931 108.923 71.8345 106.236 75.0974L107.393 76.051C109.902 73.0051 113.217 70.7261 116.96 69.4744Z" fill="#D3F3F8"/>
<path d="M124.744 110.37L124.824 111.867C130.522 111.566 135.893 109.106 139.842 104.987L138.762 103.947C135.075 107.792 130.063 110.088 124.744 110.37Z" fill="#D3F3F8"/>
<path d="M144.619 89.0235L146.119 88.9978C146.021 83.6397 144.016 78.492 140.466 74.4783L139.341 75.4715C142.656 79.2176 144.527 84.0223 144.619 89.0235Z" fill="#D3F3F8"/>
<path d="M132.438 105.734C132.592 105.157 132.511 104.544 132.212 104.027C131.914 103.51 131.423 103.133 130.847 102.978L122.878 100.843L122.992 100.418L123.484 100.134C123.911 99.8893 124.286 99.5618 124.586 99.171C124.885 98.7801 125.105 98.3337 125.231 97.8574L125.686 96.1599C125.943 95.1993 125.809 94.1757 125.311 93.3144C124.814 92.4531 123.995 91.8246 123.034 91.5672C122.074 91.3097 121.05 91.4445 120.189 91.9418C119.327 92.4391 118.699 93.2581 118.442 94.2188L117.987 95.9163C117.858 96.3918 117.825 96.8881 117.889 97.3766C117.953 97.865 118.114 98.3359 118.361 98.7618L118.645 99.2538L118.532 99.6781L110.563 97.5429C109.986 97.3884 109.372 97.4693 108.855 97.7677C108.339 98.066 107.961 98.5575 107.807 99.1339C107.653 99.7103 107.733 100.324 108.032 100.841C108.33 101.358 108.822 101.735 109.398 101.89L114.469 103.248L112.722 109.768L114.171 110.157L116.112 102.912C116.164 102.72 116.137 102.515 116.037 102.343C115.938 102.171 115.774 102.045 115.582 101.994L109.786 100.441C109.594 100.389 109.43 100.263 109.331 100.091C109.231 99.919 109.204 99.7142 109.256 99.5221C109.307 99.33 109.433 99.1662 109.605 99.0667C109.778 98.9672 109.982 98.9403 110.174 98.9918L118.868 101.321C119.06 101.373 119.265 101.346 119.437 101.246C119.609 101.147 119.735 100.983 119.786 100.791L120.175 99.3419C120.226 99.1498 120.199 98.9451 120.1 98.7728L119.66 98.0118C119.512 97.7562 119.415 97.4737 119.377 97.1807C119.338 96.8876 119.358 96.5898 119.436 96.3045L119.89 94.607C120.045 94.0306 120.422 93.5392 120.939 93.2408C121.456 92.9425 122.07 92.8616 122.646 93.016C123.222 93.1705 123.714 93.5476 124.012 94.0644C124.311 94.5812 124.392 95.1953 124.237 95.7717L123.782 97.4692C123.707 97.7549 123.575 98.0228 123.395 98.2573C123.215 98.4919 122.99 98.6883 122.734 98.8354L121.973 99.2748C121.801 99.3742 121.675 99.538 121.623 99.7302L121.235 101.179C121.184 101.371 121.211 101.576 121.31 101.748C121.41 101.92 121.573 102.046 121.766 102.098L130.459 104.427C130.651 104.478 130.815 104.604 130.914 104.776C131.014 104.949 131.041 105.153 130.989 105.346C130.938 105.538 130.812 105.701 130.64 105.801C130.468 105.9 130.263 105.927 130.071 105.876L124.275 104.323C124.083 104.271 123.878 104.298 123.706 104.398C123.534 104.497 123.408 104.661 123.357 104.853L121.415 112.098L122.864 112.486L124.611 105.966L129.682 107.325C130.259 107.478 130.873 107.397 131.389 107.099C131.906 106.801 132.283 106.31 132.438 105.734Z" fill="#D3F3F8"/>
<path d="M144.341 90.2883L141.444 89.5118C140.867 89.3581 140.253 89.4392 139.737 89.7375C139.22 90.0358 138.843 90.5268 138.688 91.1028L138.3 92.5517L132.504 90.9988L132.892 89.5499C133.046 88.9735 132.965 88.3597 132.667 87.8431C132.368 87.3265 131.877 86.9493 131.301 86.7942L128.404 86.0178C127.827 85.864 127.213 85.9452 126.697 86.2435C126.18 86.5417 125.803 87.0327 125.648 87.6088L124.871 90.5065L126.32 90.8948L127.097 87.997C127.148 87.805 127.274 87.6413 127.446 87.5419C127.619 87.4425 127.823 87.4154 128.015 87.4667L130.913 88.2431C131.105 88.2948 131.269 88.4205 131.368 88.5927C131.468 88.7649 131.495 88.9695 131.443 89.1617L129.114 97.855C129.062 98.047 128.937 98.2107 128.764 98.3101C128.592 98.4095 128.388 98.4366 128.196 98.3853L126.747 97.9971L126.358 99.446L127.807 99.8342C128.384 99.988 128.997 99.9068 129.514 99.6085C130.031 99.3103 130.408 98.8193 130.563 98.2432L130.951 96.7943L136.747 98.3473L136.359 99.7961C136.205 100.373 136.286 100.986 136.584 101.503C136.882 102.02 137.373 102.397 137.949 102.552L140.847 103.328C141.424 103.482 142.037 103.401 142.554 103.103C143.071 102.804 143.448 102.313 143.603 101.737L145.932 93.044C146.086 92.4676 146.005 91.8538 145.707 91.3371C145.408 90.8205 144.917 90.4433 144.341 90.2883ZM131.339 95.3455L132.116 92.4477L137.911 94.0006L137.135 96.8984L131.339 95.3455ZM142.154 101.349C142.102 101.541 141.977 101.705 141.804 101.804C141.632 101.904 141.428 101.931 141.236 101.879L138.338 101.103C138.146 101.051 137.982 100.926 137.883 100.753C137.783 100.581 137.756 100.377 137.807 100.184L140.137 91.491C140.188 91.299 140.314 91.1354 140.486 91.0359C140.659 90.9365 140.863 90.9095 141.055 90.9607L143.953 91.7372C144.145 91.7889 144.309 91.9146 144.408 92.0868C144.508 92.259 144.535 92.4636 144.483 92.6557L142.154 101.349Z" fill="#D3F3F8"/>
<path d="M124.449 84.2369C124.549 84.4092 124.713 84.5349 124.905 84.5864C125.097 84.6379 125.302 84.6109 125.474 84.5115L132.553 80.4242L136.6 81.5084L136.988 80.0596L134.391 79.3635L135.119 78.943C136.387 78.2106 137.313 77.0043 137.692 75.5894C138.071 74.1745 137.873 72.667 137.14 71.3985C136.408 70.1299 135.202 69.2043 133.787 68.8252C132.372 68.4461 130.864 68.6445 129.596 69.3769L128.868 69.7974L128.447 69.0691C128.084 68.441 127.602 67.8905 127.026 67.4489C126.451 67.0074 125.794 66.6835 125.094 66.4958C124.393 66.3081 123.662 66.2602 122.943 66.3549C122.224 66.4495 121.531 66.6849 120.903 67.0475C120.274 67.4102 119.724 67.893 119.282 68.4684C118.841 69.0438 118.517 69.7005 118.329 70.4011C118.142 71.1017 118.094 71.8324 118.188 72.5515C118.283 73.2706 118.518 73.9639 118.881 74.5921L119.301 75.3204L115.979 74.4302L115.591 75.8791L120.362 77.1575L124.449 84.2369ZM125.374 82.8374L122.377 77.6466C122.565 77.6292 122.74 77.5408 122.866 77.3993L125.209 74.7573L125.917 78.2168C125.945 78.3532 126.01 78.4792 126.106 78.5806C126.201 78.682 126.323 78.7548 126.458 78.7908L130.504 79.8751L125.374 82.8374ZM120.18 73.8421C119.647 72.9181 119.503 71.8204 119.78 70.7903C120.056 69.7601 120.73 68.8819 121.654 68.3486C122.577 67.8153 123.675 67.6706 124.705 67.9464C125.736 68.2221 126.614 68.8957 127.148 69.8191L127.943 71.1969C128.043 71.3692 128.207 71.4949 128.399 71.5464C128.591 71.5979 128.796 71.5709 128.968 71.4715L130.346 70.676C130.803 70.4118 131.309 70.2404 131.832 70.1714C132.356 70.1025 132.888 70.1374 133.399 70.2741C133.909 70.4108 134.387 70.6468 134.806 70.9684C135.226 71.29 135.577 71.691 135.841 72.1485C136.106 72.6061 136.277 73.1111 136.346 73.6349C136.415 74.1587 136.38 74.6909 136.243 75.2012C136.106 75.7115 135.871 76.1899 135.549 76.609C135.227 77.0281 134.826 77.3798 134.369 77.644L132.341 78.8145L127.294 77.4619L126.378 72.987C126.35 72.8506 126.285 72.7246 126.189 72.6232C126.094 72.5218 125.972 72.449 125.837 72.4129C125.703 72.3769 125.561 72.379 125.428 72.4191C125.294 72.4592 125.175 72.5356 125.082 72.6398L122.052 76.0573L121.351 75.8695L120.18 73.8421Z" fill="#D3F3F8"/>
<path d="M104.119 87.6427C104.376 88.0917 104.72 88.4851 105.131 88.8002C105.541 89.1153 106.01 89.3458 106.511 89.4783L106.515 89.4796L107.12 89.6409L108.927 92.7701L108.781 93.3137C108.666 93.7438 108.681 94.1984 108.824 94.62C108.967 95.0415 109.232 95.4112 109.585 95.6824C109.939 95.9535 110.364 96.114 110.808 96.1434C111.253 96.1729 111.696 96.07 112.081 95.8479L114.079 94.6943C114.465 94.4718 114.776 94.14 114.972 93.7409C115.169 93.3418 115.243 92.8933 115.185 92.4521C115.127 92.0109 114.939 91.5968 114.646 91.2622C114.353 90.9276 113.966 90.6876 113.537 90.5724L112.988 90.4254L111.396 87.6676C111.895 87.9871 112.46 88.1898 113.049 88.2604C113.638 88.3309 114.235 88.2677 114.796 88.0752L116.579 91.1628L117.878 90.4128L116.095 87.3252C116.783 86.7259 117.241 85.9063 117.392 85.0066C117.542 84.1068 117.376 83.1826 116.921 82.3919L114.269 77.7991C113.856 77.0827 113.227 76.5149 112.473 76.1766C111.718 75.8382 110.876 75.7465 110.066 75.9146C109.256 76.0826 108.52 76.5019 107.962 77.1126C107.404 77.7233 107.054 78.4944 106.96 79.3161C106.212 79.1423 105.43 79.1908 104.709 79.4559C103.989 79.7209 103.362 80.1908 102.905 80.8077C102.449 81.4246 102.182 82.1616 102.139 82.9279C102.096 83.6942 102.278 84.4565 102.663 85.1207L104.119 87.6427ZM112.3 91.7939L113.148 92.0213C113.292 92.0597 113.42 92.1397 113.518 92.2512C113.616 92.3628 113.679 92.5008 113.698 92.6479C113.717 92.7949 113.693 92.9445 113.627 93.0775C113.561 93.2105 113.458 93.3211 113.329 93.3953L111.331 94.5488C111.202 94.6226 111.055 94.6567 110.906 94.6466C110.758 94.6365 110.616 94.5829 110.499 94.4923C110.381 94.4018 110.292 94.2784 110.245 94.1378C110.197 93.9971 110.192 93.8455 110.23 93.702L110.456 92.8583C110.508 92.6662 110.481 92.4615 110.381 92.2892L108.638 89.2694L110.099 88.4213L111.844 91.4444C111.944 91.6167 112.108 91.7424 112.3 91.7939ZM112.491 84.0834L110.194 83.4677L109.133 81.6306L111.431 82.2463L112.491 84.0834ZM111.41 85.5739L111.254 85.3049L113.552 85.9205L114.023 86.7361C113.52 86.8426 112.997 86.7876 112.528 86.5789C112.058 86.3702 111.667 86.0184 111.41 85.5739ZM115.322 85.9861L113.656 83.1008L114.272 80.8032L115.622 83.1419C115.878 83.5871 115.987 84.1018 115.933 84.6127C115.879 85.1235 115.665 85.6042 115.322 85.9861ZM109.648 77.659C110.207 77.3372 110.87 77.2502 111.493 77.4171C112.116 77.584 112.647 77.9911 112.97 78.5491L113.211 78.9661L112.595 81.2637L110.983 78.4716L109.684 79.2215L110.37 80.4091L108.436 79.8911C108.413 79.4435 108.514 78.9983 108.728 78.6044C108.942 78.2106 109.26 77.8834 109.648 77.659ZM104.854 81.0381C105.196 80.8425 105.579 80.7319 105.972 80.7156C106.366 80.6993 106.757 80.7778 107.114 80.9444C107.2 81.2185 107.315 81.4823 107.459 81.7311L109.943 86.033C109.93 86.125 109.911 86.2162 109.888 86.3062L109.728 86.902L107.507 88.1916L106.902 88.0302L106.899 88.0295C106.589 87.9474 106.299 87.8046 106.045 87.6095C105.79 87.4144 105.577 87.1708 105.418 86.8927L103.962 84.3708C103.639 83.8103 103.552 83.1447 103.719 82.5199C103.886 81.8952 104.294 81.3623 104.854 81.0381Z" fill="#D3F3F8"/>
</g>
<circle opacity="0.5" cx="49.6532" cy="136.007" r="14.7027" transform="rotate(15 49.6532 136.007)" fill="#D9D9D9"/>
<rect opacity="0.5" x="72.2661" y="126.845" width="134.311" height="15.1001" rx="2" transform="rotate(15 72.2661 126.845)" fill="#D9D9D9"/>
<rect opacity="0.5" x="67.5354" y="144.501" width="134.311" height="7.15266" rx="3.57633" transform="rotate(15 67.5354 144.501)" fill="#D9D9D9"/>
<circle opacity="0.5" cx="43.6532" cy="173.007" r="14.7027" transform="rotate(15 43.6532 173.007)" fill="#D9D9D9"/>
<rect opacity="0.5" x="66.2661" y="163.845" width="134.311" height="15.1001" rx="2" transform="rotate(15 66.2661 163.845)" fill="#D9D9D9"/>
<rect opacity="0.5" x="61.5354" y="181.501" width="61.7241" height="7.15266" rx="3.57633" transform="rotate(15 61.5354 181.501)" fill="#D9D9D9"/>
<g filter="url(#filter2_d_183_94)">
<rect x="194.646" y="53.4343" width="191" height="215" rx="20" transform="rotate(-15 194.646 53.4343)" fill="#E9F9FC"/>
</g>
<g filter="url(#filter3_d_183_94)">
<path d="M289.5 57.0592C294.113 53.089 300.283 51.4357 306.264 52.5673L321.016 55.3585C326.996 56.49 332.136 60.2833 334.98 65.6645L341.995 78.9384C344.839 84.3196 345.078 90.703 342.644 96.2816L336.64 110.043C334.206 115.621 329.365 119.788 323.485 121.363L308.983 125.249C303.104 126.825 296.828 125.637 291.93 122.023L279.85 113.107C274.953 109.493 271.968 103.845 271.741 97.7631L271.179 82.7597C270.952 76.6775 273.506 70.8226 278.12 66.8525L289.5 57.0592Z" fill="#1A9BB2"/>
</g>
<g clip-path="url(#clip1_183_94)">
<path d="M322.912 80.7649L321.858 81.0473C321.714 81.0859 321.581 81.1493 321.455 81.2235C320.978 80.3353 320.418 79.493 319.778 78.7003C321.297 76.3764 322.413 73.3184 320.444 70.6828C318.96 68.6997 316.633 68.5988 315.099 69.3432C314.264 69.7486 313.674 70.3619 313.388 71.0705C312.786 70.5999 311.968 70.3637 311.042 70.4301C310.967 70.4355 310.891 70.4459 310.815 70.4558L307.868 65.5402C307.37 64.7092 306.368 64.3041 305.432 64.5549L296.225 67.0218C295.289 67.2726 294.624 68.1244 294.608 69.0932L294.454 78.4402C294.453 78.466 294.464 78.4882 294.467 78.5132C293.36 79.8482 292.467 81.3494 291.828 82.9607L290.86 82.7533C289.978 82.5637 289.106 83.1285 288.917 84.0106L288.003 88.2775C287.814 89.1597 288.379 90.0309 289.261 90.2202L290.328 90.449C290.468 90.4789 290.609 90.4865 290.749 90.4799C290.833 91.3864 290.99 92.2974 291.234 93.2058C291.477 94.1143 291.797 94.9819 292.177 95.8092C292.052 95.8735 291.934 95.9507 291.827 96.0467L291.018 96.7779C290.349 97.3829 290.295 98.4195 290.9 99.0891L293.825 102.328C294.25 102.799 294.89 102.965 295.466 102.81C295.707 102.745 295.938 102.624 296.136 102.445L296.871 101.782C298.226 102.854 299.745 103.706 301.367 104.308C301.371 104.317 301.371 104.326 301.376 104.335L306.212 112.401C306.71 113.232 307.712 113.637 308.648 113.386L317.855 110.919C318.791 110.669 319.456 109.817 319.472 108.848L319.628 99.4097C322.126 96.3885 323.516 92.5096 323.393 88.4723C323.54 88.4739 323.689 88.4625 323.834 88.4234L324.888 88.1411C325.76 87.9075 326.279 87.0085 326.045 86.1369L324.916 81.922C324.682 81.0504 323.783 80.5314 322.912 80.7649ZM313.289 72.8098C313.367 73.1008 313.666 73.2735 313.957 73.1955C314.248 73.1175 314.421 72.8184 314.343 72.5275C314.062 71.4807 314.795 70.7033 315.575 70.3245C316.759 69.7518 318.451 69.8408 319.57 71.3361C322.357 75.0666 317.239 80.2848 316.138 81.3344C314.66 80.9758 307.618 79.0159 308.166 74.3924C308.353 72.8227 309.4 71.9191 310.511 71.6212C310.714 71.567 310.918 71.5329 311.12 71.5183C311.984 71.4565 313.008 71.763 313.289 72.8098ZM316.189 82.4653C316.273 82.4823 316.358 82.4792 316.439 82.4576C316.442 82.4567 316.445 82.4535 316.448 82.4525C317.196 83.5323 317.76 84.7215 318.104 86.0059C319.739 92.1068 316.105 98.4001 310.005 100.035C303.904 101.669 297.61 98.0361 295.976 91.9352C294.341 85.8343 297.975 79.541 304.075 77.9063C305.286 77.582 306.525 77.464 307.763 77.5418C309.862 81.131 315.87 82.4006 316.189 82.4653ZM295.699 69.1113C295.707 68.6269 296.039 68.201 296.507 68.0756L305.714 65.6086C306.182 65.4831 306.683 65.686 306.932 66.1012L309.717 70.748C308.995 71.0459 308.315 71.5497 307.821 72.2641L306.271 69.2898C306.152 69.0633 305.893 68.9489 305.646 69.0151L298.27 70.9915C298.023 71.0577 297.855 71.2866 297.866 71.542L298.029 75.3158C297.137 75.9054 296.313 76.5764 295.564 77.3166L295.699 69.1113ZM306.773 72.6135C305.438 72.6364 304.107 72.8155 302.805 73.1645C301.481 73.5192 300.24 74.0294 299.093 74.6669L298.974 71.9321L305.506 70.182L306.773 72.6135ZM290.556 89.3822L289.49 89.1536C289.195 89.0905 289.007 88.8001 289.07 88.5061L289.984 84.2392C290.047 83.9445 290.337 83.7574 290.631 83.8198L291.46 83.9974C290.909 85.7153 290.637 87.5343 290.684 89.3883C290.641 89.3894 290.598 89.3914 290.556 89.3822ZM295.405 101.636C295.182 101.837 294.837 101.82 294.635 101.596L291.71 98.3576C291.508 98.1345 291.526 97.789 291.749 97.5873L292.558 96.8562C292.591 96.8269 292.628 96.806 292.666 96.7857C293.552 98.4154 294.697 99.8552 296.034 101.067L295.405 101.636ZM318.381 108.83C318.373 109.314 318.041 109.74 317.573 109.866L308.366 112.333C307.898 112.458 307.397 112.255 307.148 111.84L302.928 104.801C303.947 105.068 304.996 105.237 306.063 105.302L307.809 108.651C307.928 108.878 308.187 108.992 308.434 108.926L315.81 106.95C316.057 106.883 316.225 106.654 316.214 106.399L316.051 102.625C316.943 102.036 317.767 101.365 318.516 100.624L318.381 108.83ZM307.309 105.331C308.621 105.31 309.951 105.131 311.275 104.777C312.599 104.422 313.84 103.912 314.987 103.274L315.106 106.009L308.574 107.759L307.309 105.331ZM310.993 103.723C302.858 105.903 294.467 101.058 292.288 92.9234C290.108 84.7889 294.953 76.3979 303.087 74.2182C304.431 73.858 305.808 73.6932 307.186 73.7056C307.143 73.8849 307.106 74.0691 307.082 74.2636C306.989 75.0546 307.067 75.7755 307.27 76.4335C306.101 76.4125 304.935 76.5467 303.793 76.8526C297.111 78.643 293.132 85.5357 294.922 92.2176C296.712 98.8994 303.605 102.879 310.287 101.089C316.969 99.2981 320.948 92.4054 319.158 85.7236C318.772 84.2824 318.135 82.9492 317.284 81.7437C317.76 81.2665 318.443 80.5312 319.122 79.6295C320.362 81.2297 321.262 83.0378 321.792 85.0177C323.972 93.1522 319.127 101.543 310.993 103.723ZM324.991 86.4193C325.069 86.7097 324.896 87.0094 324.606 87.0873L323.552 87.3697C323.476 87.39 323.399 87.3897 323.324 87.3774C323.237 86.4986 323.082 85.6157 322.846 84.7353C322.611 83.8596 322.31 83.0149 321.943 82.204C322.001 82.1576 322.067 82.1207 322.14 82.101L323.194 81.8186C323.485 81.7407 323.784 81.9139 323.862 82.2043L324.991 86.4193Z" fill="#D3F3F8"/>
<path d="M306.372 88.5849C306.145 88.6457 305.983 88.8447 305.969 89.0789L305.774 92.3253L302.176 85.6269C302.063 85.4153 301.824 85.3031 301.588 85.3502C301.345 85.3983 301.176 85.5938 301.153 85.8323L300.738 90.0945L298.469 90.7025C298.178 90.7806 298.005 91.0796 298.083 91.3706C298.161 91.6615 298.46 91.8343 298.751 91.7563L301.386 91.0504C301.605 90.9915 301.765 90.8025 301.787 90.5763L302.064 87.7249L305.722 94.5352C305.838 94.7502 306.082 94.8622 306.32 94.8098C306.328 94.808 306.336 94.8061 306.344 94.804C306.57 94.7435 306.734 94.545 306.747 94.31L307.034 89.5369L309.815 88.7916C310.015 88.7381 310.167 88.5766 310.209 88.3741L310.723 85.858L312.427 87.7796C312.565 87.9342 312.777 87.998 312.977 87.9446L315.084 87.3799C315.375 87.3018 315.548 87.0028 315.47 86.7118C315.392 86.4209 315.093 86.2481 314.802 86.3261L313.02 86.8036L310.816 84.3181C310.541 84.009 309.957 84.1656 309.873 84.5706L309.207 87.8251L306.372 88.5849Z" fill="#D3F3F8"/>
<path d="M300.473 83.389C300.764 83.311 300.937 83.012 300.859 82.721C300.781 82.43 300.482 82.2573 300.191 82.3353L300.186 82.3367C299.895 82.4146 299.725 82.7131 299.803 83.004C299.881 83.295 300.182 83.4669 300.473 83.389Z" fill="#D3F3F8"/>
<path d="M302.429 82.3003C302.507 82.5913 302.806 82.764 303.097 82.686L307.312 81.5566C307.603 81.4786 307.776 81.1795 307.698 80.8886C307.62 80.5976 307.321 80.4248 307.03 80.5029L302.815 81.6323C302.523 81.7103 302.351 82.0093 302.429 82.3003Z" fill="#D3F3F8"/>
<path d="M308.8 91.3226C308.508 91.4006 308.336 91.6997 308.414 91.9906L309.261 95.1518C309.339 95.4428 309.638 95.6156 309.929 95.5375C310.22 95.4595 310.393 95.1604 310.315 94.8695L309.468 91.7083C309.39 91.4173 309.091 91.2445 308.8 91.3226Z" fill="#D3F3F8"/>
<path d="M312.488 90.3344L311.434 90.6167C310.853 90.7723 310.507 91.3716 310.662 91.9528L311.227 94.0603C311.383 94.6414 311.982 94.9873 312.563 94.8316L313.617 94.5493C314.198 94.3937 314.544 93.7944 314.388 93.2132L313.824 91.1057C313.668 90.5246 313.068 90.1787 312.488 90.3344ZM312.281 93.7779L311.716 91.6704L312.77 91.3881L313.335 93.4954L312.281 93.7779Z" fill="#D3F3F8"/>
<path d="M315.122 89.6285C314.831 89.7065 314.658 90.0056 314.736 90.2965L315.583 93.4577C315.661 93.7487 315.96 93.9215 316.251 93.8434C316.542 93.7654 316.715 93.4663 316.637 93.1754L315.79 90.0142C315.712 89.7232 315.413 89.5504 315.122 89.6285Z" fill="#D3F3F8"/>
</g>
<circle opacity="0.5" cx="245.653" cy="167.004" r="14.7027" transform="rotate(-15 245.653 167.004)" fill="#D9D9D9"/>
<rect opacity="0.5" x="260.655" y="147.762" width="134.311" height="15.1001" rx="2" transform="rotate(-15 260.655 147.762)" fill="#D9D9D9"/>
<rect opacity="0.5" x="265.386" y="165.418" width="134.311" height="7.15266" rx="3.57633" transform="rotate(-15 265.386 165.418)" fill="#D9D9D9"/>
<circle opacity="0.5" cx="255.653" cy="200.004" r="14.7027" transform="rotate(-15 255.653 200.004)" fill="#D9D9D9"/>
<rect opacity="0.5" x="270.655" y="180.762" width="134.311" height="15.1001" rx="2" transform="rotate(-15 270.655 180.762)" fill="#D9D9D9"/>
<rect opacity="0.5" x="275.386" y="198.418" width="134.311" height="7.15266" rx="3.57633" transform="rotate(-15 275.386 198.418)" fill="#D9D9D9"/>
<defs>
<filter id="filter0_d_183_94" x="0.489746" y="1.48999" width="263.158" height="280.129" filterUnits="userSpaceOnUse" color-interpolation-filters="sRGB">
<feFlood flood-opacity="0" result="BackgroundImageFix"/>
<feColorMatrix in="SourceAlpha" type="matrix" values="0 0 0 0 0 0 0 0 0 0 0 0 0 0 0 0 0 0 127 0" result="hardAlpha"/>
<feOffset dx="8" dy="8"/>
<feGaussianBlur stdDeviation="8"/>
<feComposite in2="hardAlpha" operator="out"/>
<feColorMatrix type="matrix" values="0 0 0 0 0 0 0 0 0 0 0 0 0 0 0 0 0 0 0.25 0"/>
<feBlend mode="normal" in2="BackgroundImageFix" result="effect1_dropShadow_183_94"/>
<feBlend mode="normal" in="SourceGraphic" in2="effect1_dropShadow_183_94" result="shape"/>
</filter>
<filter id="filter1_d_183_94" x="82.2871" y="48.665" width="81.1477" height="81.7125" filterUnits="userSpaceOnUse" color-interpolation-filters="sRGB">
<feFlood flood-opacity="0" result="BackgroundImageFix"/>
<feColorMatrix in="SourceAlpha" type="matrix" values="0 0 0 0 0 0 0 0 0 0 0 0 0 0 0 0 0 0 127 0" result="hardAlpha"/>
<feOffset/>
<feGaussianBlur stdDeviation="2"/>
<feComposite in2="hardAlpha" operator="out"/>
<feColorMatrix type="matrix" values="0 0 0 0 0 0 0 0 0 0 0 0 0 0 0 0 0 0 0.15 0"/>
<feBlend mode="normal" in2="BackgroundImageFix" result="effect1_dropShadow_183_94"/>
<feBlend mode="normal" in="SourceGraphic" in2="effect1_dropShadow_183_94" result="shape"/>
</filter>
<filter id="filter2_d_183_94" x="183.136" y="0.489868" width="263.158" height="280.129" filterUnits="userSpaceOnUse" color-interpolation-filters="sRGB">
<feFlood flood-opacity="0" result="BackgroundImageFix"/>
<feColorMatrix in="SourceAlpha" type="matrix" values="0 0 0 0 0 0 0 0 0 0 0 0 0 0 0 0 0 0 127 0" result="hardAlpha"/>
<feOffset dy="8"/>
<feGaussianBlur stdDeviation="8"/>
<feComposite in2="hardAlpha" operator="out"/>
<feColorMatrix type="matrix" values="0 0 0 0 0 0 0 0 0 0 0 0 0 0 0 0 0 0 0.25 0"/>
<feBlend mode="normal" in2="BackgroundImageFix" result="effect1_dropShadow_183_94"/>
<feBlend mode="normal" in="SourceGraphic" in2="effect1_dropShadow_183_94" result="shape"/>
</filter>
<filter id="filter3_d_183_94" x="267.165" y="48.2184" width="81.1477" height="81.7125" filterUnits="userSpaceOnUse" color-interpolation-filters="sRGB">
<feFlood flood-opacity="0" result="BackgroundImageFix"/>
<feColorMatrix in="SourceAlpha" type="matrix" values="0 0 0 0 0 0 0 0 0 0 0 0 0 0 0 0 0 0 127 0" result="hardAlpha"/>
<feOffset/>
<feGaussianBlur stdDeviation="2"/>
<feComposite in2="hardAlpha" operator="out"/>
<feColorMatrix type="matrix" values="0 0 0 0 0 0 0 0 0 0 0 0 0 0 0 0 0 0 0.15 0"/>
<feBlend mode="normal" in2="BackgroundImageFix" result="effect1_dropShadow_183_94"/>
<feBlend mode="normal" in="SourceGraphic" in2="effect1_dropShadow_183_94" result="shape"/>
</filter>
<clipPath id="clip0_183_94">
<rect width="48" height="48" fill="white" transform="translate(106.646 60) rotate(15)"/>
</clipPath>
<clipPath id="clip1_183_94">
<rect width="48" height="48" fill="white" transform="translate(277.646 72) rotate(-15)"/>
</clipPath>
</defs>
</svg>
