<svg width="451" height="165" viewBox="0 0 451 165" fill="none" xmlns="http://www.w3.org/2000/svg">
<g filter="url(#filter0_d_183_114)">
<circle cx="82.5" cy="74.5" r="66.5" fill="#4DCEE5"/>
</g>
<path d="M111.512 46.4882C103.949 38.9298 93.6945 34.6846 83.0024 34.686C72.3103 34.6875 62.0565 38.9356 54.496 46.496C46.9356 54.0565 42.6875 64.3103 42.686 75.0024C42.6846 85.6945 46.9298 95.9494 54.4882 103.512C62.0507 111.07 72.3056 115.316 82.9977 115.314C93.6898 115.313 103.944 111.065 111.504 103.504C119.065 95.9436 123.313 85.6898 123.314 74.9977C123.316 64.3056 119.07 54.0507 111.512 46.4882ZM110.543 100.643L108.138 98.2373L106.237 100.138L108.643 102.543C102.031 108.731 93.3949 112.305 84.3438 112.599V108.594H81.6563V112.599C72.6052 112.305 63.9694 108.731 57.3574 102.543L59.7628 100.138L57.8623 98.2373L55.4569 100.643C49.269 94.0307 45.6952 85.3949 45.4012 76.3438H49.4063V73.6563H45.4012C45.6952 64.6052 49.269 55.9694 55.4569 49.3574L57.8623 51.7628L59.7628 49.8623L57.3574 47.4569C63.9694 41.269 72.6052 37.6952 81.6563 37.4012V41.4063H84.3438V37.4012C93.3949 37.6952 102.031 41.269 108.643 47.4569L106.237 49.8623L108.138 51.7628L110.543 49.3574C116.731 55.9694 120.305 64.6052 120.599 73.6563H116.594V76.3438H120.599C120.305 85.3949 116.731 94.0307 110.543 100.643Z" fill="#0D4D59"/>
<path d="M95.0938 89.7812H92.4062C91.6937 89.7821 91.0106 90.0655 90.5068 90.5693C90.003 91.0731 89.7196 91.7562 89.7188 92.4688V93.8125H76.2812V92.4688C76.2804 91.7562 75.997 91.0731 75.4932 90.5693C74.9894 90.0655 74.3063 89.7821 73.5938 89.7812H70.9062C70.1937 89.7821 69.5106 90.0655 69.0068 90.5693C68.503 91.0731 68.2196 91.7562 68.2188 92.4688V103.219C68.2196 103.931 68.503 104.614 69.0068 105.118C69.5106 105.622 70.1937 105.905 70.9062 105.906H73.5938C74.3063 105.905 74.9894 105.622 75.4932 105.118C75.997 104.614 76.2804 103.931 76.2812 103.219V101.875H89.7188V103.219C89.7196 103.931 90.003 104.614 90.5068 105.118C91.0106 105.622 91.6937 105.905 92.4062 105.906H95.0938C95.8063 105.905 96.4894 105.622 96.9932 105.118C97.497 104.614 97.7804 103.931 97.7812 103.219V92.4688C97.7804 91.7562 97.497 91.0731 96.9932 90.5693C96.4894 90.0655 95.8063 89.7821 95.0938 89.7812ZM73.5938 103.219H70.9062V92.4688H73.5938L73.5954 103.219H73.5938ZM89.7188 99.1875H76.2812V96.5H89.7188V99.1875ZM95.0938 103.219H92.4062V92.4688H95.0938L95.0954 103.219H95.0938Z" fill="#0D4D59"/>
<path d="M109.708 71.1001C109.933 70.1159 109.933 69.0937 109.708 68.1095C109.484 67.1253 109.04 66.2043 108.411 65.415C107.781 64.6257 106.982 63.9884 106.073 63.5503C105.163 63.1123 104.167 62.8848 103.157 62.8848C102.148 62.8847 101.151 63.1122 100.242 63.5502C99.332 63.9882 98.5328 64.6255 97.9034 65.4148C97.274 66.204 96.8305 67.125 96.6059 68.1092C96.3813 69.0934 96.3813 70.1156 96.606 71.0998C95.3149 71.389 94.1758 72.1443 93.4069 73.2211C92.638 74.2978 92.2933 75.6204 92.4389 76.9355C92.5844 78.2506 93.21 79.4658 94.1957 80.3484C95.1815 81.2309 96.4581 81.7189 97.7813 81.7187H100.469V79.0312H97.7813C97.0685 79.0312 96.3849 78.7481 95.8809 78.2441C95.3769 77.7401 95.0938 77.0565 95.0938 76.3437C95.0938 75.631 95.3769 74.9474 95.8809 74.4434C96.3849 73.9394 97.0685 73.6562 97.7813 73.6562V73.6482C98.3243 74.3771 99.0097 74.988 99.7959 75.444L101.142 73.1177C100.467 72.7291 99.9188 72.1533 99.564 71.46C99.2092 70.7667 99.0627 69.9855 99.1423 69.2108C99.2218 68.436 99.524 67.7009 100.012 67.0941C100.501 66.4874 101.154 66.035 101.894 65.7916C102.634 65.5481 103.428 65.5241 104.181 65.7224C104.934 65.9207 105.614 66.3328 106.138 66.909C106.662 67.4851 107.008 68.2007 107.134 68.9692C107.26 69.7377 107.161 70.5263 106.849 71.2398C105.776 71.5949 104.841 72.2791 104.178 73.1952C103.515 74.1114 103.158 75.213 103.156 76.3437H105.844C105.844 75.8122 106.001 75.2926 106.297 74.8507C106.592 74.4087 107.012 74.0642 107.503 73.8608C107.994 73.6574 108.534 73.6042 109.056 73.7079C109.577 73.8116 110.056 74.0675 110.432 74.4434C110.807 74.8193 111.063 75.2981 111.167 75.8194C111.271 76.3408 111.218 76.8811 111.014 77.3722C110.811 77.8633 110.466 78.283 110.024 78.5783C109.582 78.8736 109.063 79.0312 108.531 79.0312H105.844V81.7187H108.531C109.854 81.7189 111.131 81.231 112.117 80.3486C113.102 79.4661 113.728 78.2511 113.874 76.9362C114.019 75.6212 113.675 74.2987 112.906 73.2219C112.138 72.1451 110.999 71.3896 109.708 71.1001Z" fill="#0D4D59"/>
<path d="M98.1748 86.1436L100.075 88.044L101.813 86.3067V92.4688H104.5V86.3067L106.237 88.044L108.138 86.1436L103.156 81.1624L98.1748 86.1436Z" fill="#0D4D59"/>
<path d="M73.5938 77.9181V65.5938C73.5925 64.525 73.1674 63.5003 72.4117 62.7446C71.6559 61.9888 70.6313 61.5637 69.5625 61.5625H56.125C55.0562 61.5637 54.0316 61.9888 53.2758 62.7446C52.5201 63.5003 52.095 64.525 52.0938 65.5938V84.4062C52.095 85.475 52.5201 86.4997 53.2758 87.2554C54.0316 88.0112 55.0562 88.4363 56.125 88.4375H63.0744C63.604 88.4389 64.1286 88.3353 64.6179 88.1327C65.1072 87.93 65.5515 87.6323 65.9249 87.2568L72.413 80.7687C72.7886 80.3952 73.0863 79.951 73.2889 79.4617C73.4916 78.9724 73.5952 78.4477 73.5938 77.9181ZM65.5312 83.8495V81.7188C65.5317 81.3625 65.6734 81.0209 65.9253 80.769C66.1772 80.5171 66.5187 80.3754 66.875 80.375H69.0058L65.5312 83.8495ZM70.9062 77.6875H66.875C65.8062 77.6887 64.7816 78.1138 64.0258 78.8696C63.2701 79.6253 62.845 80.65 62.8438 81.7188V85.75H56.125C55.7687 85.7496 55.4272 85.6079 55.1753 85.356C54.9234 85.1041 54.7817 84.7625 54.7812 84.4062V65.5938C54.7817 65.2375 54.9234 64.8959 55.1753 64.644C55.4272 64.3921 55.7687 64.2504 56.125 64.25H69.5625C69.9188 64.2504 70.2603 64.3921 70.5122 64.644C70.7641 64.8959 70.9058 65.2375 70.9062 65.5938V77.6875Z" fill="#0D4D59"/>
<path d="M68.2188 66.9375H57.4688V69.625H68.2188V66.9375Z" fill="#0D4D59"/>
<path d="M68.2188 72.3125H57.4688V75H68.2188V72.3125Z" fill="#0D4D59"/>
<path d="M60.1562 79.0312H57.4688V81.7188H60.1562V79.0312Z" fill="#0D4D59"/>
<path d="M76.2813 55.5607C77.4324 55.5613 78.5601 55.2358 79.5338 54.6218L81.0996 56.1876L75.331 61.9561L77.2315 63.8566L83 58.0881L88.7685 63.8566L90.669 61.9561L84.9005 56.1876L86.2443 54.8438H89.4882C90.164 54.8457 90.8335 54.7135 91.4579 54.4549C92.0824 54.1963 92.6493 53.8164 93.1259 53.3372L94.7003 51.7628C95.1783 51.2852 95.5574 50.718 95.8162 50.0938C96.0749 49.4696 96.2081 48.8005 96.2083 48.1247C96.2084 47.449 96.0754 46.7799 95.8168 46.1556C95.5583 45.5312 95.1793 44.964 94.7015 44.4862C94.2236 44.0084 93.6564 43.6294 93.0321 43.3708C92.4078 43.1123 91.7386 42.9793 91.0629 42.9794C90.3872 42.9795 89.7181 43.1127 89.0938 43.3715C88.4696 43.6302 87.9025 44.0094 87.4248 44.4874L85.8504 46.0617C85.3713 46.5383 84.9914 47.1053 84.7328 47.7297C84.4741 48.3541 84.3419 49.0236 84.3438 49.6995V52.9434L83 54.2871L81.4342 52.7213C82.1706 51.5515 82.4881 50.1665 82.3349 48.7928C82.1817 47.4191 81.5669 46.138 80.5909 45.1592L78.5753 43.1436L76.6748 45.0441L78.6904 47.0597C79.1617 47.5309 79.4844 48.1301 79.6186 48.7829C79.7528 49.4357 79.6926 50.1135 79.4454 50.7325L75.2159 46.503L73.3154 48.4034L77.5449 52.6329C76.926 52.8801 76.2481 52.9404 75.5953 52.8062C74.9425 52.672 74.3434 52.3493 73.8722 51.878L71.8565 49.8623L69.9561 51.7628L71.9717 53.7784C72.5373 54.3447 73.2091 54.7936 73.9487 55.0995C74.6883 55.4053 75.481 55.562 76.2813 55.5607ZM87.0313 49.6995C87.0304 49.3767 87.0935 49.0569 87.217 48.7587C87.3406 48.4605 87.522 48.1898 87.7509 47.9622L89.3253 46.3878C89.7861 45.9277 90.4109 45.6693 91.0621 45.6696C91.7134 45.6698 92.3379 45.9287 92.7984 46.3892C93.259 46.8497 93.5178 47.4742 93.518 48.1255C93.5183 48.7768 93.26 49.4015 92.7998 49.8624L91.2254 51.4367C90.9978 51.6656 90.7271 51.847 90.4289 51.9706C90.1307 52.0941 89.8109 52.1572 89.4882 52.1563H87.0313V49.6995Z" fill="#0D4D59"/>
<path d="M84.3438 69.7951V68.2813H81.6562V69.7951C81.17 69.9212 80.704 70.1153 80.272 70.3716L78.5752 68.6748L76.6748 70.5753L78.3715 72.272C78.1153 72.7041 77.9212 73.1701 77.7951 73.6563H76.2812V76.3438H77.7951C77.9212 76.83 78.1153 77.296 78.3715 77.7281L76.6748 79.4248L78.5752 81.3253L80.272 79.6285C80.704 79.8848 81.17 80.0788 81.6562 80.2049V91.125H84.3438V80.2049C84.83 80.0788 85.296 79.8848 85.728 79.6285L87.4248 81.3253L89.3252 79.4248L87.6285 77.7281C87.8847 77.296 88.0788 76.83 88.2049 76.3438H89.7188V73.6563H88.2049C88.0788 73.1701 87.8847 72.7041 87.6285 72.272L105.45 54.4503L103.55 52.5498L85.728 70.3716C85.296 70.1153 84.83 69.9212 84.3438 69.7951ZM83 77.6875C82.4685 77.6875 81.9489 77.5299 81.5069 77.2346C81.0649 76.9393 80.7205 76.5196 80.5171 76.0285C80.3137 75.5374 80.2604 74.9971 80.3641 74.4757C80.4678 73.9544 80.7238 73.4755 81.0997 73.0997C81.4755 72.7238 81.9544 72.4679 82.4757 72.3642C82.997 72.2605 83.5374 72.3137 84.0285 72.5171C84.5195 72.7205 84.9393 73.065 85.2346 73.5069C85.5299 73.9489 85.6875 74.4685 85.6875 75C85.6867 75.7126 85.4033 76.3957 84.8994 76.8995C84.3956 77.4033 83.7125 77.6867 83 77.6875Z" fill="#0D4D59"/>
<g filter="url(#filter1_d_183_114)">
<circle cx="368.5" cy="74.5" r="66.5" fill="#4DCEE5"/>
<path fill-rule="evenodd" clip-rule="evenodd" d="M371.667 77.6667V96.3333C371.667 97.0406 371.386 97.7189 370.886 98.219C370.386 98.7191 369.707 99 369 99C368.293 99 367.614 98.7191 367.114 98.219C366.614 97.7189 366.333 97.0406 366.333 96.3333V77.6667H347.667C346.959 77.6667 346.281 77.3857 345.781 76.8856C345.281 76.3855 345 75.7072 345 75C345 74.2928 345.281 73.6145 345.781 73.1144C346.281 72.6143 346.959 72.3333 347.667 72.3333H366.333V53.6667C366.333 52.9594 366.614 52.2811 367.114 51.781C367.614 51.281 368.293 51 369 51C369.707 51 370.386 51.281 370.886 51.781C371.386 52.2811 371.667 52.9594 371.667 53.6667V72.3333H390.333C391.041 72.3333 391.719 72.6143 392.219 73.1144C392.719 73.6145 393 74.2928 393 75C393 75.7072 392.719 76.3855 392.219 76.8856C391.719 77.3857 391.041 77.6667 390.333 77.6667H371.667Z" fill="#0D4D59"/>
</g>
<rect x="165" y="68" width="121" height="13" rx="6.5" fill="#147485"/>
<defs>
<filter id="filter0_d_183_114" x="0" y="0" width="165" height="165" filterUnits="userSpaceOnUse" color-interpolation-filters="sRGB">
<feFlood flood-opacity="0" result="BackgroundImageFix"/>
<feColorMatrix in="SourceAlpha" type="matrix" values="0 0 0 0 0 0 0 0 0 0 0 0 0 0 0 0 0 0 127 0" result="hardAlpha"/>
<feOffset dy="8"/>
<feGaussianBlur stdDeviation="8"/>
<feComposite in2="hardAlpha" operator="out"/>
<feColorMatrix type="matrix" values="0 0 0 0 0 0 0 0 0 0 0 0 0 0 0 0 0 0 0.1 0"/>
<feBlend mode="normal" in2="BackgroundImageFix" result="effect1_dropShadow_183_114"/>
<feBlend mode="normal" in="SourceGraphic" in2="effect1_dropShadow_183_114" result="shape"/>
</filter>
<filter id="filter1_d_183_114" x="286" y="0" width="165" height="165" filterUnits="userSpaceOnUse" color-interpolation-filters="sRGB">
<feFlood flood-opacity="0" result="BackgroundImageFix"/>
<feColorMatrix in="SourceAlpha" type="matrix" values="0 0 0 0 0 0 0 0 0 0 0 0 0 0 0 0 0 0 127 0" result="hardAlpha"/>
<feOffset dy="8"/>
<feGaussianBlur stdDeviation="8"/>
<feComposite in2="hardAlpha" operator="out"/>
<feColorMatrix type="matrix" values="0 0 0 0 0 0 0 0 0 0 0 0 0 0 0 0 0 0 0.1 0"/>
<feBlend mode="normal" in2="BackgroundImageFix" result="effect1_dropShadow_183_114"/>
<feBlend mode="normal" in="SourceGraphic" in2="effect1_dropShadow_183_114" result="shape"/>
</filter>
</defs>
</svg>
