<svg width="273" height="221" viewBox="0 0 273 221" fill="none" xmlns="http://www.w3.org/2000/svg">
<path d="M47.3223 113.179C52.8061 110.538 59.1939 110.538 64.6777 113.179L91.1049 125.906C96.5886 128.546 100.571 133.541 101.926 139.475L108.453 168.071C109.807 174.005 108.386 180.233 104.591 184.991L86.3026 207.924C82.5078 212.683 76.7525 215.454 70.666 215.454H41.334C35.2475 215.454 29.4922 212.683 25.6974 207.924L7.40918 184.991C3.61431 180.233 2.19287 174.005 3.54725 168.071L10.0742 139.475C11.4286 133.541 15.4114 128.546 20.8951 125.906L47.3223 113.179Z" fill="#E9F9FC"/>
<path d="M208.322 113.179C213.806 110.538 220.194 110.538 225.678 113.179L252.105 125.906C257.589 128.546 261.571 133.541 262.926 139.475L269.453 168.071C270.807 174.005 269.386 180.233 265.591 184.991L247.303 207.924C243.508 212.683 237.752 215.454 231.666 215.454H202.334C196.248 215.454 190.492 212.683 186.697 207.924L168.409 184.991C164.614 180.233 163.193 174.005 164.547 168.071L171.074 139.475C172.429 133.541 176.411 128.546 181.895 125.906L208.322 113.179Z" fill="#E9F9FC"/>
<path d="M217 157V173M209 165H225M236.901 143.651C229.749 139.264 223.507 141.029 219.757 143.845C218.221 145 217.453 145.579 217 145.579C216.547 145.579 215.779 145 214.243 143.845C210.493 141.029 204.251 139.267 197.099 143.651C187.715 149.405 185.592 168.397 207.24 184.421C211.363 187.472 213.424 188.997 217 188.997C220.576 188.997 222.637 187.472 226.76 184.421C248.408 168.397 246.285 149.411 236.901 143.651Z" stroke="#4DCEE5" stroke-width="3" stroke-linecap="round" stroke-linejoin="round"/>
<g filter="url(#filter0_d_183_30)">
<path d="M128.322 95.1789C133.806 92.5381 140.194 92.5381 145.678 95.1789L172.105 107.906C177.589 110.546 181.571 115.541 182.926 121.475L189.453 150.071C190.807 156.005 189.386 162.233 185.591 166.991L167.303 189.924C163.508 194.683 157.752 197.454 151.666 197.454H122.334C116.248 197.454 110.492 194.683 106.697 189.924L88.4092 166.991C84.6143 162.233 83.1929 156.005 84.5472 150.071L91.0742 121.475C92.4286 115.541 96.4114 110.546 101.895 107.906L128.322 95.1789Z" fill="#E9F9FC"/>
</g>
<g filter="url(#filter1_d_183_30)">
<path d="M87.3223 4.17895C92.8061 1.53812 99.1939 1.53812 104.678 4.17895L131.105 16.9056C136.589 19.5465 140.571 24.5407 141.926 30.4746L148.453 59.0712C149.807 65.0051 148.386 71.2328 144.591 75.9914L126.303 98.924C122.508 103.683 116.752 106.454 110.666 106.454H81.334C75.2475 106.454 69.4922 103.683 65.6974 98.9241L47.4092 75.9914C43.6143 71.2328 42.1929 65.0051 43.5472 59.0712L50.0742 30.4746C51.4286 24.5407 55.4114 19.5465 60.8951 16.9056L87.3223 4.17895Z" fill="#E9F9FC"/>
</g>
<g filter="url(#filter2_d_183_30)">
<path d="M168.322 4.17895C173.806 1.53812 180.194 1.53812 185.678 4.17895L212.105 16.9056C217.589 19.5465 221.571 24.5407 222.926 30.4746L229.453 59.0712C230.807 65.0051 229.386 71.2328 225.591 75.9914L207.303 98.924C203.508 103.683 197.752 106.454 191.666 106.454H162.334C156.248 106.454 150.492 103.683 146.697 98.9241L128.409 75.9914C124.614 71.2328 123.193 65.0051 124.547 59.0712L131.074 30.4746C132.429 24.5407 136.411 19.5465 141.895 16.9056L168.322 4.17895Z" fill="#E9F9FC"/>
</g>
<path d="M96 30C90.8577 30 85.8309 31.5249 81.5552 34.3818C77.2795 37.2387 73.947 41.2994 71.9791 46.0502C70.0113 50.8011 69.4964 56.0288 70.4996 61.0723C71.5028 66.1159 73.9791 70.7486 77.6152 74.3848C81.2514 78.0209 85.8842 80.4972 90.9277 81.5004C95.9712 82.5036 101.199 81.9887 105.95 80.0209C110.701 78.053 114.761 74.7205 117.618 70.4448C120.475 66.1691 122 61.1423 122 56C121.993 49.1066 119.251 42.4976 114.377 37.6233C109.502 32.7489 102.893 30.0073 96 30ZM96 78C91.6488 78 87.3953 76.7097 83.7775 74.2923C80.1596 71.8749 77.3398 68.439 75.6747 64.419C74.0095 60.3991 73.5739 55.9756 74.4227 51.708C75.2716 47.4404 77.3669 43.5204 80.4437 40.4437C83.5204 37.3669 87.4404 35.2716 91.708 34.4227C95.9756 33.5738 100.399 34.0095 104.419 35.6747C108.439 37.3398 111.875 40.1596 114.292 43.7775C116.71 47.3953 118 51.6488 118 56C117.993 61.8327 115.673 67.4247 111.549 71.549C107.425 75.6734 101.833 77.9934 96 78ZM84 51C84 50.4067 84.176 49.8266 84.5056 49.3333C84.8352 48.8399 85.3038 48.4554 85.852 48.2284C86.4001 48.0013 87.0033 47.9419 87.5853 48.0576C88.1672 48.1734 88.7018 48.4591 89.1213 48.8787C89.5409 49.2982 89.8266 49.8328 89.9424 50.4147C90.0581 50.9967 89.9987 51.5999 89.7717 52.1481C89.5446 52.6962 89.1601 53.1648 88.6667 53.4944C88.1734 53.8241 87.5934 54 87 54C86.2044 54 85.4413 53.6839 84.8787 53.1213C84.3161 52.5587 84 51.7956 84 51ZM108 51C108 51.5933 107.824 52.1734 107.494 52.6667C107.165 53.1601 106.696 53.5446 106.148 53.7716C105.6 53.9987 104.997 54.0581 104.415 53.9424C103.833 53.8266 103.298 53.5409 102.879 53.1213C102.459 52.7018 102.173 52.1672 102.058 51.5853C101.942 51.0033 102.001 50.4001 102.228 49.8519C102.455 49.3038 102.84 48.8352 103.333 48.5056C103.827 48.1759 104.407 48 105 48C105.796 48 106.559 48.3161 107.121 48.8787C107.684 49.4413 108 50.2044 108 51ZM107.733 63C105.16 67.4475 100.883 70 96 70C91.1175 70 86.8425 67.45 84.27 63C84.1253 62.7724 84.0281 62.5178 83.9844 62.2516C83.9406 61.9855 83.9511 61.7132 84.0153 61.4512C84.0794 61.1892 84.1959 60.9429 84.3578 60.7271C84.5196 60.5113 84.7234 60.3305 84.957 60.1955C85.1905 60.0605 85.4489 59.9742 85.7167 59.9416C85.9844 59.9091 86.256 59.9311 86.5151 60.0062C86.7741 60.0814 87.0153 60.2082 87.2241 60.379C87.4329 60.5497 87.605 60.761 87.73 61C89.5975 64.2275 92.5325 66 96 66C99.4675 66 102.403 64.225 104.268 61C104.533 60.5405 104.97 60.2052 105.482 60.0678C105.994 59.9305 106.541 60.0023 107 60.2675C107.459 60.5327 107.795 60.9696 107.932 61.482C108.07 61.9945 107.998 62.5405 107.733 63Z" fill="#4DCEE5"/>
<path d="M137 165.667C133.352 163.56 129.213 162.451 125 162.451C120.787 162.451 116.648 163.56 113 165.667V131C116.648 128.894 120.787 127.785 125 127.785C129.213 127.785 133.352 128.894 137 131M137 165.667C140.648 163.56 144.787 162.451 149 162.451C153.213 162.451 157.352 163.56 161 165.667V131C157.352 128.894 153.213 127.785 149 127.785C144.787 127.785 140.648 128.894 137 131M137 165.667V131" stroke="#4DCEE5" stroke-width="3" stroke-linecap="round" stroke-linejoin="round"/>
<path d="M155.667 34.6667V77.3334C155.667 78.7479 156.228 80.1044 157.229 81.1046C158.229 82.1048 159.585 82.6667 161 82.6667H193C194.414 82.6667 195.771 82.1048 196.771 81.1046C197.771 80.1044 198.333 78.7479 198.333 77.3334V46.2454C198.333 45.5349 198.191 44.8315 197.915 44.1767C197.64 43.5218 197.236 42.9287 196.728 42.432L184.888 30.8534C183.891 29.8791 182.553 29.3335 181.16 29.3334H161C159.585 29.3334 158.229 29.8953 157.229 30.8955C156.228 31.8957 155.667 33.2522 155.667 34.6667Z" stroke="#4DCEE5" stroke-width="4" stroke-linecap="round" stroke-linejoin="round"/>
<path d="M182.333 29.3334V40C182.333 41.4145 182.895 42.7711 183.895 43.7713C184.895 44.7715 186.252 45.3334 187.666 45.3334H198.333" stroke="#4DCEE5" stroke-width="4" stroke-linejoin="round"/>
<path d="M31.6667 164.667C43.6667 164.667 55.6667 152.667 55.6667 140.667C55.6667 152.667 67.6667 164.667 79.6667 164.667C67.6667 164.667 55.6667 176.667 55.6667 188.667C55.6667 176.667 43.6667 164.667 31.6667 164.667ZM29 184.667C31.2213 184.667 35.6667 180.221 35.6667 178C35.6667 180.221 40.112 184.667 42.3333 184.667C40.112 184.667 35.6667 189.112 35.6667 191.333C35.6667 189.112 31.2213 184.667 29 184.667ZM66.3333 146C69 146 74.3333 140.667 74.3333 138C74.3333 140.667 79.6667 146 82.3333 146C79.6667 146 74.3333 151.333 74.3333 154C74.3333 151.333 69 146 66.3333 146Z" stroke="#4DCEE5" stroke-width="3" stroke-linecap="round" stroke-linejoin="round"/>
<defs>
<filter id="filter0_d_183_30" x="76.0454" y="89.1984" width="121.909" height="120.256" filterUnits="userSpaceOnUse" color-interpolation-filters="sRGB">
<feFlood flood-opacity="0" result="BackgroundImageFix"/>
<feColorMatrix in="SourceAlpha" type="matrix" values="0 0 0 0 0 0 0 0 0 0 0 0 0 0 0 0 0 0 127 0" result="hardAlpha"/>
<feOffset dy="4"/>
<feGaussianBlur stdDeviation="4"/>
<feComposite in2="hardAlpha" operator="out"/>
<feColorMatrix type="matrix" values="0 0 0 0 0 0 0 0 0 0 0 0 0 0 0 0 0 0 0.5 0"/>
<feBlend mode="normal" in2="BackgroundImageFix" result="effect1_dropShadow_183_30"/>
<feBlend mode="normal" in="SourceGraphic" in2="effect1_dropShadow_183_30" result="shape"/>
</filter>
<filter id="filter1_d_183_30" x="39.0454" y="2.1983" width="113.909" height="112.256" filterUnits="userSpaceOnUse" color-interpolation-filters="sRGB">
<feFlood flood-opacity="0" result="BackgroundImageFix"/>
<feColorMatrix in="SourceAlpha" type="matrix" values="0 0 0 0 0 0 0 0 0 0 0 0 0 0 0 0 0 0 127 0" result="hardAlpha"/>
<feOffset dy="4"/>
<feGaussianBlur stdDeviation="2"/>
<feComposite in2="hardAlpha" operator="out"/>
<feColorMatrix type="matrix" values="0 0 0 0 0 0 0 0 0 0 0 0 0 0 0 0 0 0 0.25 0"/>
<feBlend mode="normal" in2="BackgroundImageFix" result="effect1_dropShadow_183_30"/>
<feBlend mode="normal" in="SourceGraphic" in2="effect1_dropShadow_183_30" result="shape"/>
</filter>
<filter id="filter2_d_183_30" x="118.045" y="2.1983" width="113.909" height="113.256" filterUnits="userSpaceOnUse" color-interpolation-filters="sRGB">
<feFlood flood-opacity="0" result="BackgroundImageFix"/>
<feColorMatrix in="SourceAlpha" type="matrix" values="0 0 0 0 0 0 0 0 0 0 0 0 0 0 0 0 0 0 127 0" result="hardAlpha"/>
<feOffset dx="-2" dy="5"/>
<feGaussianBlur stdDeviation="2"/>
<feComposite in2="hardAlpha" operator="out"/>
<feColorMatrix type="matrix" values="0 0 0 0 0 0 0 0 0 0 0 0 0 0 0 0 0 0 0.25 0"/>
<feBlend mode="normal" in2="BackgroundImageFix" result="effect1_dropShadow_183_30"/>
<feBlend mode="normal" in="SourceGraphic" in2="effect1_dropShadow_183_30" result="shape"/>
</filter>
</defs>
</svg>
